<?xml version="1.0" encoding="UTF-8" standalone="no"?>
<!-- Created with Inkscape (http://www.inkscape.org/) -->

<svg
   width="135.37141mm"
   height="135.37349mm"
   viewBox="0 0 135.37141 135.37349"
   version="1.1"
   id="svg5"
   inkscape:version="1.1 (c68e22c387, 2021-05-23)"
   sodipodi:docname="pause-icon.svg"
   xmlns:inkscape="http://www.inkscape.org/namespaces/inkscape"
   xmlns:sodipodi="http://sodipodi.sourceforge.net/DTD/sodipodi-0.dtd"
   xmlns="http://www.w3.org/2000/svg"
   xmlns:svg="http://www.w3.org/2000/svg">
  <sodipodi:namedview
     id="namedview7"
     pagecolor="#ffffff"
     bordercolor="#999999"
     borderopacity="1"
     inkscape:pageshadow="0"
     inkscape:pageopacity="0"
     inkscape:pagecheckerboard="0"
     inkscape:document-units="mm"
     showgrid="false"
     inkscape:zoom="0.67081229"
     inkscape:cx="-193.04953"
     inkscape:cy="465.85312"
     inkscape:window-width="1920"
     inkscape:window-height="1111"
     inkscape:window-x="-9"
     inkscape:window-y="-9"
     inkscape:window-maximized="1"
     inkscape:current-layer="layer1" />
  <defs
     id="defs2" />
  <g
     inkscape:label="Layer 1"
     inkscape:groupmode="layer"
     id="layer1"
     transform="translate(-6.0460991,-7.2752673)">
    <path
       style="fill:#ffffff;stroke-width:0.264583"
       d="m 69.655927,142.49888 c -8.56944,-0.6942 -16.10066,-2.6819 -23.29045,-6.14698 -5.16391,-2.48872 -6.65244,-3.48336 -7.27917,-4.86396 -0.6351,-1.39904 -0.63826,-2.15204 -0.0148,-3.52492 0.63566,-1.39969 1.88021,-2.27681 3.43226,-2.41896 1.03257,-0.0946 1.4907,0.0376 2.94276,0.84875 5.43952,3.03879 10.12337,4.93535 15.34583,6.21377 4.5696,1.1186 7.56277,1.45438 12.96458,1.45438 5.40181,0 8.39498,-0.33578 12.96458,-1.45438 5.36476,-1.31325 9.46074,-2.9494 14.575223,-5.8221 3.23343,-1.81615 4.52708,-2.02478 6.06497,-0.9781 1.91673,1.30452 2.50699,3.06176 1.72035,5.12156 -0.38965,1.02029 -0.75865,1.4049 -2.31179,2.40963 -2.38055,1.53996 -8.658773,4.55628 -11.714373,5.62806 -8.00398,2.80747 -17.7036,4.15673 -25.4,3.53325 z M 19.911597,125.4713 c -6.812591,-1.35456 -12.0764529,-6.54913 -13.4692129,-13.29191 -0.52838,-2.55806 -0.52838,-4.18691 0,-6.74496 1.083225,-5.24423 4.4210959,-9.517522 9.2385499,-11.827592 2.155683,-1.03369 5.037893,-1.73327 7.140993,-1.73327 3.9314,0 8.49915,1.75166 11.45409,4.39245 l 1.66174,1.48509 4.0268,-2.32725 c 2.21473,-1.27998 5.1935,-2.98938 6.61947,-3.79866 2.51573,-1.42775 2.58809,-1.49498 2.43813,-2.26517 -1.21836,-6.2574 -0.59984,-11.62251 1.95216,-16.93333 0.69927,-1.45521 1.82461,-3.37579 2.50076,-4.26795 1.39407,-1.83946 4.06236,-4.41567 5.84093,-5.63935 1.87149,-1.28762 5.90748,-3.1218 8.09097,-3.67698 l 1.98437,-0.50456 v -8.917 -8.917 l -1.3877,-0.48869 c -4.55148,-1.60286 -8.53053,-5.5957 -10.14011,-10.17525 -2.58934,-7.36714 0.0631,-15.382907 6.51922,-19.700993 3.69363,-2.4704542 8.30842,-3.4103452 12.53731,-2.5534642 6.19043,1.254343 10.76191,5.2650912 12.91841,11.3338572 0.58124,1.63572 0.68208,2.37472 0.69435,5.08863 0.0163,3.60884 -0.4673,5.54003 -2.15339,8.59896 -1.7931,3.25306 -5.78402,6.50613 -9.40043,7.66248 l -0.99569,0.31836 0.0696,8.87513 0.0696,8.87513 1.98438,0.51319 c 4.33819,1.12192 7.95263,3.18767 11.25363,6.43175 2.68096,2.63474 3.64024,3.93053 5.16498,6.97686 2.5007,4.99625 3.15882,10.69783 1.97384,17.10022 -0.14663,0.79222 -0.13413,0.80104 6.483633,4.57577 l 6.63054,3.78203 1.42491,-1.26848 c 5.76941,-5.13607 13.71239,-5.97334 20.22049,-2.13147 1.87453,1.10658 4.68042,3.91247 5.787,5.787002 3.16212,5.3566 3.16212,12.04745 0,17.40405 -1.11199,1.88369 -3.91496,4.68178 -5.81273,5.80259 -3.57886,2.11366 -7.84874,2.8528 -11.8613,2.05327 -8.40789,-1.67534 -14.02948,-8.9502 -13.70379,-17.73397 l 0.0878,-2.36671 -6.4823,-3.76032 -6.482293,-3.760322 -0.65283,0.83536 c -3.63396,4.649992 -8.36483,7.822072 -13.96284,9.362192 -2.2516,0.61946 -3.07349,0.71043 -6.4187,0.71043 -3.35329,0 -4.16462,-0.0902 -6.44205,-0.71664 -2.66573,-0.73318 -5.94453,-2.23184 -8.09414,-3.69962 -1.26337,-0.86265 -4.76459,-4.23391 -5.85965,-5.642142 l -0.63854,-0.82115 -6.48229,3.768572 -6.48229,3.76857 0.0872,2.34424 c 0.32227,8.66197 -5.29545,16.01486 -13.50367,17.67459 -2.15904,0.43657 -4.67357,0.49266 -6.42997,0.14343 z m 6.61725,-9.01253 c 1.67371,-0.79424 3.26711,-2.37954 4.10084,-4.07999 0.93129,-1.89941 0.93129,-5.24434 0,-7.14375 -0.82567,-1.68401 -2.42642,-3.28755 -4.10774,-4.1149 -1.08327,-0.53307 -1.71376,-0.6476 -3.56497,-0.6476 -2.65135,0 -4.20454,0.61873 -5.960089,2.37429 -4.438678,4.43868 -2.69097,11.81891 3.315679,14.00147 1.66976,0.60672 4.4892,0.43005 6.21628,-0.38952 z m 101.600003,0 c 1.67371,-0.79424 3.26711,-2.37954 4.10084,-4.07999 0.93129,-1.89941 0.93129,-5.24434 0,-7.14375 -0.82568,-1.68401 -2.42643,-3.28755 -4.10774,-4.1149 -1.08327,-0.53307 -1.71376,-0.6476 -3.56497,-0.6476 -2.65135,0 -4.20454,0.61873 -5.96009,2.37429 -4.43868,4.43868 -2.69097,11.81891 3.31568,14.00147 1.66975,0.60672 4.4892,0.43005 6.21628,-0.38952 z M 77.328847,99.945618 c 7.56815,-1.57498 13.35227,-8.73946 13.35227,-16.53871 0,-9.23508 -7.68906,-16.92415 -16.92414,-16.92415 -9.23508,0 -16.92415,7.68907 -16.92415,16.92415 0,6.2721 3.71522,12.30884 9.26019,15.04656 3.65963,1.806882 7.36127,2.298472 11.23583,1.49215 z m 0,-68.15352 c 1.67371,-0.79423 3.26711,-2.37953 4.10084,-4.07998 0.93129,-1.89941 0.93129,-5.24434 0,-7.14375 -0.82567,-1.68401 -2.42642,-3.28755 -4.10774,-4.11491 -1.08327,-0.533059 -1.71376,-0.647591 -3.56497,-0.647591 -2.65135,0 -4.20454,0.618731 -5.96009,2.374291 -4.43868,4.43867 -2.69097,11.81891 3.31568,14.00147 1.66975,0.60672 4.48919,0.43004 6.21628,-0.38953 z m 53.842713,55.5345 c -0.89176,-0.45868 -1.34635,-0.9263 -1.811,-1.86293 -0.59658,-1.20256 -0.60926,-1.35263 -0.33073,-3.91298 1.55387,-14.28344 -2.85802,-29.05468 -12.10174,-40.51723 -3.51561,-4.35949 -9.2312,-9.31933 -14.1379,-12.2685 -3.198693,-1.92257 -4.078023,-3.41965 -3.378993,-5.75279 0.630203,-2.10342 2.890563,-3.4307 4.898383,-2.87631 2.12268,0.5861 8.80196,5.18304 12.57889,8.65728 6.08894,5.60097 10.37715,11.25263 14.03551,18.49814 4.2903,8.49712 6.40377,16.71791 6.76813,26.32604 0.17758,4.68289 -0.21849,10.3464 -0.82508,11.7982 -0.87843,2.10238 -3.56858,3.00504 -5.69547,1.91108 z M 12.900119,86.780338 c -2.155151,-1.46678 -2.485063,-2.99978 -2.491126,-11.57552 -0.0049,-6.99273 0.330906,-9.87283 1.840188,-15.78062 1.172645,-4.59008 2.404409,-7.89392 4.629622,-12.41758 5.126404,-10.42154 13.386684,-19.57803 23.140684,-25.6514 1.82084,-1.13376 2.29735,-1.31425 3.44068,-1.30326 2.44029,0.0235 4.16411,1.69473 4.16411,4.03717 0,1.97472 -0.58923,2.80245 -3.18472,4.47374 -3.83037,2.46647 -6.38229,4.5216 -9.60071,7.73173 -8.9699,8.94678 -14.37628,20.22274 -15.86507,33.08939 -0.22128,1.9124 -0.25887,4.30345 -0.1206,7.67292 0.32068,7.81504 0.32972,7.5503 -0.28615,8.38129 -0.93852,1.26634 -2.167354,1.93746 -3.547551,1.93746 -0.855202,0 -1.518357,-0.18628 -2.119357,-0.59532 z"
       id="path57" />
  </g>
</svg>
